<svg xmlns="http://www.w3.org/2000/svg" width="235.585" height="55.13" viewBox="0 0 231.585 30.13"><g transform="translate(0.001 -0.01)"><g transform="translate(-0.001 0.01)"><path d="M433.185.01h7.072a.541.541,0,0,1,.55.748l-.262.811a1.158,1.158,0,0,1-1.032.749h-7.072a.541.541,0,0,1-.55-.749l.262-.811A1.156,1.156,0,0,1,433.185.01Z" transform="translate(-424.348 -0.01)" fill="#ef7f1a" fill-rule="evenodd"/><path d="M55.862,7.511,50.919,22.646c-.949,2.9-2,7.6-9.565,7.6H5.81c-2.736,0-7.343-1.618-5.307-7.6L4.6,10.607c.243-.712.9-2.551,2.893-2.552l4.017,0c1.623.083,2.231.58,1.693,2.591L8.783,23.76c-.715,2.876,1.31,4.138,3.925,4.138H40.464c3.3,0,5.224-2.23,5.988-5.094l4.687-14c1.544-4.612-.893-6.312-5.21-6.312H24.086C21.6,2.491,16.361.129,19.238.125,27.956.112,38.8.133,47.513.127c8.612-.006,9.225,4.7,8.348,7.384ZM43.655,22.649c-.8,2.719-2.166,4.155-5.542,4.175H30c-2.335,0-3.007-1.492-2.6-2.9l4.323-12.879c.283-.816-1.1-.9-1.4.055L26.014,23.817c-.728,2.389-2,2.954-3.858,3.006H13.845c-2.313,0-2.471-1.895-1.978-3.716L16.317,9.953c.572-1.691,1.243-1.9,2.274-1.9h.769c1.764,0,1.631.981,1.234,2.172L16.527,22.369c-.266.8.1,1.44.831,1.44h1.933A1.528,1.528,0,0,0,20.9,22.568l4.089-12.035c.758-2.231,2.045-2.559,3.375-2.559h4.611c2.19,0,2.058,1.569,1.722,2.56L30.75,22.182c-.309.916.1,1.595.97,1.609l1.712.028c.715.012,1.278-.239,1.659-1.355L38.543,12.35c1.068-3.129,1.623-6.442-2.656-6.442H27.17c-2.487,0-7.625-2.366-4.848-2.366H44.669c3.115,0,4.778,1.962,3.836,4.668l-4.85,14.44Z" transform="translate(0.001 -0.118)" fill="#fff" fill-rule="evenodd"/><path d="M2950.6,1521.29a1.836,1.836,0,1,1-.7.14A1.844,1.844,0,0,1,2950.6,1521.29Zm-.825,2.828v-2.008h.909a1.745,1.745,0,0,1,.235.014.792.792,0,0,1,.177.041.46.46,0,0,1,.133.079.529.529,0,0,1,.1.122.6.6,0,0,1,.087.315.579.579,0,0,1-.036.205.519.519,0,0,1-.11.171.544.544,0,0,1-.184.126.914.914,0,0,1-.159.051l.007,0a.483.483,0,0,1,.072.053,1.293,1.293,0,0,1,.114.122,1.541,1.541,0,0,1,.107.148l.375.589h-.405c-.125-.194-.246-.388-.373-.58l-.084-.116-.067-.077-.057-.048-.054-.029-.054-.019-.054-.006-.353,0v.877h-.328v-.034Zm.328-1.136h.528a1.274,1.274,0,0,0,.155-.009.539.539,0,0,0,.113-.026.3.3,0,0,0,.079-.043.218.218,0,0,0,.056-.063.282.282,0,0,0,.036-.076.337.337,0,0,0,.011-.083.267.267,0,0,0-.022-.114.248.248,0,0,0-.068-.092.284.284,0,0,0-.116-.06.683.683,0,0,0-.181-.021h-.591Zm1.582-.934a1.557,1.557,0,0,0-.5-.332,1.532,1.532,0,1,0,.5.333Z" transform="translate(-2897.495 -1494.842)" fill="#fff"/><path d="M363.23,197.13h7.149a.541.541,0,0,1,.55.748l-.262.811a1.158,1.158,0,0,1-1.032.749h-7.149a.541.541,0,0,1-.55-.749l.262-.811A1.156,1.156,0,0,1,363.23,197.13Z" transform="translate(-355.608 -193.703)" fill="#ef7f1a" fill-rule="evenodd"/></g><g transform="translate(67.296 6.028)"><path d="M3871.713,432.105h3.474c.443.031.733-.153.709-.775V413.654c0-.244-.112-.5-.385-.5h-4.072a.472.472,0,0,0-.479.493v17.661c0,.581.155.793.752.793Zm10,0h3.063c.521.028.788-.21.788-.918V420.3h.053l6.041,10.84a1.614,1.614,0,0,0,1.631.969H3896c.773,0,1.256-.236,1.266-1.356l0-16.423c0-1.019-.572-1.168-1.194-1.168H3893.9a1.1,1.1,0,0,0-1.28,1.253v10.424h-.052l-6.1-10.828c-.256-.469-.366-.849-1.308-.849h-3.215a.914.914,0,0,0-1.025.987v17.077c0,.575.194.9.793.884Zm22.05,0h6.5c5.758,0,9.288-3.344,9.288-9.553,0-5.865-3.477-9.394-9.288-9.394h-6.272c-1.385,0-1.884.725-1.884,1.712,0,5.3.008,10.329.008,15.625C3902.111,432.04,3902.58,432.105,3903.76,432.105Zm3.287-14.7h2.336c3.37,0,5.227,1.672,5.227,5.122,0,3.795-1.486,5.254-5.227,5.334h-2.336Zm16.484,5.228c0,5.493,3.371,9.872,9.341,9.872s9.34-4.379,9.34-9.872-3.371-9.872-9.34-9.872S3923.531,417.138,3923.531,422.632Zm4.936,0c0-2.813,1.221-5.626,4.406-5.626s4.4,2.813,4.4,5.626-1.221,5.626-4.4,5.626S3928.467,425.444,3928.467,422.632Zm21.385,9.473h.644a.852.852,0,0,0,.923-.76l4.562-16.2h.053q2.295,8.1,4.589,16.2a.9.9,0,0,0,1.025.753h.407c.439.066.747-.178.906-.777l4.867-17.64c.071-.308.053-.53-.393-.53h-.644c-.458,0-.661.156-.751.5l-4.195,16.086h-.053l-4.426-15.808c-.215-.764-.452-.765-1.1-.777-.083,0-.207,0-.322,0-.665,0-1.029-.025-1.25.732l-4.414,15.855h-.054l-4.139-15.969c-.179-.6-.345-.617-.757-.617h-.677c-.714,0-.493.626-.458.737q2.429,8.766,4.859,17.531c.151.5.423.717.8.678Zm21.986,0h.473c.394,0,.664-.01.664-.612V413.661c0-.344-.087-.5-.5-.5h-.771c-.23,0-.537.059-.537.5v17.795c0,.521.173.651.667.651Zm6,0h.715c.465,0,.536-.172.536-.723v-15.3h.053c3.448,5.007,7.091,10.292,10.539,15.3.474.638.6.724,1.339.73h.367c.565,0,.811-.264.811-.849l.012-17.6c0-.366-.1-.5-.525-.5h-.718c-.42,0-.561.169-.561.5l-.012,15.528h-.054l-10.623-15.424a1.074,1.074,0,0,0-1.018-.6h-.617c-.691,0-.8.05-.8.823V431.29c-.019.539.076.815.554.815Zm35.143-9.633h-6.9c-.373-.006-.53.1-.527.448,0,.2,0,.475,0,.672,0,.313.133.419.49.419h5.958c.079,4.007-2.362,6.953-6.554,6.953-5.016,0-7.139-4.193-7.139-8.332s2.123-8.333,7.139-8.333a6.1,6.1,0,0,1,5.892,3.84c.237.681.252.91.864.91h.59c.542,0,.569-.241.347-.956-1.083-3.487-4.033-5.333-7.694-5.333-5.971,0-8.943,4.7-8.943,9.872s2.972,9.872,8.943,9.872a6.844,6.844,0,0,0,6.555-3.848h.053c0,.935,0,1.925,0,2.86,0,.44.128.59.535.59h.527c.328,0,.461-.131.461-.632v-8.294a.659.659,0,0,0-.6-.707Zm4.543,3.914c.031,4.261,3.253,6.117,7.572,6.117,6.714,0,7.244-4.113,7.244-5.414,0-3.1-2.228-4.272-4.909-4.989l-4.617-1.141c-1.539-.371-2.867-1.115-2.867-2.892,0-2.813,2.283-3.768,4.751-3.768,2.439,0,4.547,1.231,5.093,3.609.111.483.046.747.627.743h.761c.262,0,.518-.109.475-.606-.3-3.477-3.44-5.285-6.981-5.285-5.334,0-6.529,3.476-6.529,5.334,0,2.946,2.044,4.007,4.272,4.564l4.22,1.035c1.751.425,3.9,1.274,3.9,3.423,0,2.76-3.026,3.848-5.016,3.848-3.342,0-6.093-1.111-6.182-4.727-.008-.323-.2-.368-.467-.368h-.717C4017.6,425.869,4017.524,425.97,4017.526,426.386Z" transform="translate(-3870.96 -411.602)" fill="#fff"/><path d="M13148.205,346.15a1.518,1.518,0,0,1,1.072.444,1.544,1.544,0,0,1,.329.493,1.537,1.537,0,0,1,0,1.158,1.54,1.54,0,0,1-.329.492,1.514,1.514,0,0,1-2.586-1.071,1.511,1.511,0,0,1,.442-1.071,1.505,1.505,0,0,1,.49-.329A1.522,1.522,0,0,1,13148.205,346.15Zm-.681,2.328v-1.653h.748a1.471,1.471,0,0,1,.193.011.664.664,0,0,1,.146.034.392.392,0,0,1,.109.065.381.381,0,0,1,.085.1.486.486,0,0,1,.07.259.475.475,0,0,1-.029.169.389.389,0,0,1-.09.141.467.467,0,0,1-.151.1.763.763,0,0,1-.13.042l.006,0a.429.429,0,0,1,.057.043,1.356,1.356,0,0,1,.1.1c.028.037.06.078.088.122l.306.485h-.333c-.1-.159-.2-.32-.306-.478l-.069-.1-.056-.064-.048-.039-.044-.024-.044-.015-.046-.006-.29,0v.722h-.271v-.028Zm.271-.935h.433a1.035,1.035,0,0,0,.131-.007.39.39,0,0,0,.091-.022.22.22,0,0,0,.066-.035.193.193,0,0,0,.046-.052.3.3,0,0,0,.03-.063.22.22,0,0,0,.01-.068.223.223,0,0,0-.02-.094.2.2,0,0,0-.056-.076.256.256,0,0,0-.1-.05.555.555,0,0,0-.148-.017h-.487v.483Zm1.3-.769a1.259,1.259,0,0,0-.407-.273,1.26,1.26,0,1,0,0,2.33,1.237,1.237,0,0,0,.407-.273,1.258,1.258,0,0,0,0-1.783Z" transform="translate(-12985.432 -346.15)" fill="#fff"/></g></g></svg>